<svg xmlns="http://www.w3.org/2000/svg" width="26" height="26" viewBox="0 0 26 26">
  <g id="instagram" transform="translate(-691 -2770.96)">
    <g id="Retângulo_27" data-name="Retângulo 27" transform="translate(691 2770.96)" fill="#fff" stroke="#707070" stroke-linejoin="round" stroke-width="1">
      <rect width="26" height="26" rx="5" stroke="none"/>
      <rect x="0.5" y="0.5" width="25" height="25" rx="4.5" fill="none"/>
    </g>
    <path id="instagram-2" data-name="instagram" d="M15.82,12.207a3.614,3.614,0,0,1-3.614,3.614H5.262a3.614,3.614,0,0,1-3.614-3.614V5.261A3.614,3.614,0,0,1,5.262,1.647h6.945A3.614,3.614,0,0,1,15.82,5.261v6.945Zm1.648-6.945A5.262,5.262,0,0,0,12.206,0H5.262A5.261,5.261,0,0,0,0,5.261v6.945a5.262,5.262,0,0,0,5.262,5.262h6.944a5.262,5.262,0,0,0,5.262-5.262Zm-8.7,6.349a2.763,2.763,0,1,1,2.763-2.763A2.767,2.767,0,0,1,8.764,11.61Zm0-7.077a4.314,4.314,0,1,0,4.314,4.314A4.319,4.319,0,0,0,8.764,4.533ZM13.33,3.216a1.027,1.027,0,1,0,1.027,1.027A1.027,1.027,0,0,0,13.33,3.216Z" transform="translate(695 2774.96)" fill="#1c9cc1"/>
  </g>
</svg>
