<svg xmlns="http://www.w3.org/2000/svg" width="26" height="26" viewBox="0 0 26 26">
  <g id="twitter" transform="translate(-706 -2772.96)">
    <g id="Retângulo_26" data-name="Retângulo 26" transform="translate(706 2772.96)" fill="#fff" stroke="#707070" stroke-linejoin="round" stroke-width="1">
      <rect width="26" height="26" rx="5" stroke="none"/>
      <rect x="0.5" y="0.5" width="25" height="25" rx="4.5" fill="none"/>
    </g>
    <path id="twitter-2" data-name="twitter" d="M15.94,4.58a6.586,6.586,0,0,1-1.616.462c.26-.044.644-.515.8-.706a2.973,2.973,0,0,0,.538-.98c.014-.028.025-.063,0-.085a.094.094,0,0,0-.086.008,8.259,8.259,0,0,1-1.92.735.129.129,0,0,1-.133-.035,1.551,1.551,0,0,0-.167-.172,3.4,3.4,0,0,0-.93-.57,3.239,3.239,0,0,0-1.427-.23,3.413,3.413,0,0,0-1.354.383A3.491,3.491,0,0,0,8.55,4.28,3.352,3.352,0,0,0,7.9,5.586a3.554,3.554,0,0,0-.035,1.379c.011.077,0,.088-.066.077A10.251,10.251,0,0,1,1.2,3.685c-.077-.088-.119-.088-.182.006a3.345,3.345,0,0,0,.57,3.953c.13.123.262.245.406.357A3.358,3.358,0,0,1,.721,7.644C.644,7.6.605,7.623.6,7.71a2,2,0,0,0,.021.378,3.383,3.383,0,0,0,2.085,2.7,1.97,1.97,0,0,0,.423.129,3.77,3.77,0,0,1-1.249.039c-.091-.018-.126.028-.091.115a3.51,3.51,0,0,0,2.623,2.2c.119.021.238.021.357.049-.007.01-.014.01-.021.021a4.164,4.164,0,0,1-1.792.95,6.422,6.422,0,0,1-2.721.348c-.146-.021-.177-.02-.217,0s-.005.06.042.1c.185.123.374.231.567.336a8.975,8.975,0,0,0,1.819.728,9.688,9.688,0,0,0,9.405-2.2,9.871,9.871,0,0,0,2.6-7.2c0-.1.122-.16.2-.215a6.323,6.323,0,0,0,1.274-1.331A.387.387,0,0,0,16,4.594V4.58C16,4.538,16.005,4.55,15.94,4.58Z" transform="translate(711 2776.371)" fill="#1c9cc1" fill-rule="evenodd"/>
  </g>
</svg>
