<svg xmlns="http://www.w3.org/2000/svg" width="663" height="118.594" viewBox="0 0 663 118.594">
  <g id="linhas" transform="translate(-368.5 -2076.665)">
    <g id="linhas-2" data-name="linhas">
      <path id="Caminho_8" data-name="Caminho 8" d="M784.48,2143.332H1055v60" transform="translate(-25 -14)" fill="none" stroke="#343142" stroke-width="3"/>
      <path id="Caminho_9" data-name="Caminho 9" d="M1101.944,2143.332H835v60" transform="translate(-465 -14)" fill="none" stroke="#343142" stroke-width="3"/>
      <path id="Caminho_10" data-name="Caminho 10" d="M727.923,2159v47.26" transform="translate(-29.923 -11)" fill="none" stroke="#343142" stroke-width="3"/>
    </g>
    <g id="bikcraft" transform="translate(638.166 2076.665)">
      <path id="Caminho_20" data-name="Caminho 20" d="M9.155,9.71A64.768,64.768,0,0,0,18.2,8.937c-.078,1.005-.232,4.1-.232,9.971v2.628c2.164-1.778,3.943-2.706,6.107-2.706a6.366,6.366,0,0,1,5.565,2.86,12.128,12.128,0,0,1,1.546,6.261c0,7.188-3.4,11.285-10.281,11.285a12.967,12.967,0,0,1-5.411-1.315c-.928.309-2.164.928-3.4,1.315L11.7,39c.078-2.088.078-6.029.078-11.363V17.748c0-2.473-.078-4.174-.155-5.642-.078-1.005-.309-1.16-2.628-1.16ZM20.9,37.768c2.628,0,3.865-3.17,3.865-9.044A12.766,12.766,0,0,0,23.686,23a2.787,2.787,0,0,0-2.473-1.546,3.559,3.559,0,0,0-2.86,1.7c-.386.542-.54,1.005-.54,7.111,0,5.025.232,5.179.542,5.8A2.782,2.782,0,0,0,20.9,37.768Zm23.806,1.005c-1.624,0-3.246-.156-5.8-.156-2.7,0-4.019.156-5.333.156V37.459c2.164-.078,2.473-.464,2.551-1.315.077-.928.155-2.4.155-4.792V26.405c0-2.01,0-3.632-.078-4.328s-.387-.928-2.4-.85V19.913a78.639,78.639,0,0,0,8.58-.85c-.078,1.005-.155,2.86-.155,7.111v5.334c0,2.473.078,3.555.155,4.638s.387,1.237,2.319,1.468ZM38.912,10.1a2.912,2.912,0,0,1,3.17,3.246,3.013,3.013,0,0,1-3.324,3.015,2.881,2.881,0,0,1-3.014-3.015,3.064,3.064,0,0,1,3.17-3.246Zm7.807-.387a57,57,0,0,0,8.426-.773q-.157,4.791-.156,9.584v9.662c1.469-.387,4.638-4.252,5.874-6.493.232-.464.232-.7-.386-.7l-1.7-.155V19.527c2.86.078,5.8-.078,8.735-.232v1.315c-2.164.232-3.015.387-3.866,1.082a36.166,36.166,0,0,0-3.71,3.865A113.289,113.289,0,0,0,66.2,36.531a2.155,2.155,0,0,0,1.933.928l1.081.078-.077,1.313a57.3,57.3,0,0,0-8.58.464c-.928-2.164-3.71-7.42-4.56-9.044-.464-.85-.7-1.159-1.005-1.082,0,3.17-.077,4.715.078,6.956.078,1.005.309,1.315,2.4,1.391V38.85c-1.469,0-3.015-.155-5.565-.155-3.015,0-4.328.155-5.488.155V37.535c2.01-.077,2.319-.463,2.4-1.237.077-.928.153-2.937.153-6.956v-9.97c0-3.17,0-5.565-.077-7.575q0-.7-.928-.7H46.641ZM28.092,57.864c-1.315,4.174-3.865,6.183-8.116,6.183-3.633,0-5.952-1.005-7.575-3.17a11.174,11.174,0,0,1-1.855-6.724c0-5.952,3.633-10.512,10.281-10.512,4.019,0,6.956,1.855,6.956,4.87a2.906,2.906,0,0,1-3.092,2.936,3.507,3.507,0,0,1-1.546-.386,1.208,1.208,0,0,1-.542-1.391,11.643,11.643,0,0,0,.232-1.624c0-1.932-.7-2.859-2.164-2.859-2.4,0-3.633,3.479-3.633,8.271a12.809,12.809,0,0,0,.928,5.409,4.029,4.029,0,0,0,3.865,2.783c2.319,0,3.788-1.313,4.87-4.328ZM32.5,52.222a43.184,43.184,0,0,0-.232-5.412.814.814,0,0,0-.928-.772H29.946V44.724a32.594,32.594,0,0,0,7.729-.928l.232.155c.155.928.309,3.17.387,4.561h.153c1.007-2.706,2.4-4.87,5.257-4.87a2.913,2.913,0,0,1,2.86,3.092,3.049,3.049,0,0,1-2.706,3.324,1.5,1.5,0,0,1-1.546-.774c-.386-.85-.618-1.313-1.39-1.313-.851,0-1.315.773-1.855,2.01a8.206,8.206,0,0,0-.387,2.783c0,4.406,0,6.88.078,7.962s.463,1.39,3.554,1.468l-.077,1.315c-2.164-.078-4.1-.156-6.338-.156-2.319,0-4.019.078-5.952.156l.231-1.315c1.855-.078,2.319-.309,2.319-1.082.078-1.082.155-3.17.155-5.565V52.221H32.5Zm26.2-3.555c0-2.32-.774-3.557-2.32-3.557-1.777,0-2.627,1.005-2.627,2.86a8.628,8.628,0,0,0,.153,1.469,1.1,1.1,0,0,1-.463,1.159,4.225,4.225,0,0,1-2.164.7c-1.469,0-2.706-.7-2.706-2.4,0-2.473,3.633-5.256,8.735-5.256,4.173,0,6.028,1.7,6.724,2.783a3.884,3.884,0,0,1,.618,2.088V59.874c0,1.315.387,1.624.851,1.624.618,0,1.313-1.005,1.623-2.706l1.315.618c-.7,3.324-2.706,4.715-5.488,4.715-2.4,0-3.71-1.005-4.1-3.015-1.855,1.855-3.787,3.015-5.8,3.015-3.246,0-5.411-2.164-5.411-5.721a4,4,0,0,1,2.551-4.1c2.627-1.16,6.569-2.319,8.5-3.71V48.666Zm-4.87,8.579c0,1.7.7,3.555,2.4,3.555a2.3,2.3,0,0,0,2.164-1.546,5.742,5.742,0,0,0,.231-1.855V52.144c-.851.542-2.164,1.16-3.17,1.778A3.429,3.429,0,0,0,53.83,57.246Zm15.3-12.907,2.473.077V43.178c.078-3.246.851-5.643,2.551-7.343A7.638,7.638,0,0,1,79.8,33.516c3.17,0,4.87,1.546,4.87,3.555,0,1.469-1.237,2.473-2.938,2.473A1.46,1.46,0,0,1,80.186,38c0-1.623-.231-2.936-1.39-2.936-.774,0-1.237.7-1.393,2.01a70.184,70.184,0,0,0,.232,7.188h3.788l-.232,1.546-3.555.232c-.078,1.468-.078,4.019-.078,7.033,0,2.86,0,5.411.078,7.42.078,1.005.233,1.391,1.082,1.469a20.607,20.607,0,0,0,2.088.153l-.157,1.315c-1.468,0-3.787-.155-5.8-.155-2.088,0-4.561.155-5.952.155l.078-1.315c2.01-.077,2.319-.309,2.4-1.159.153-1.315.153-3.324.153-6.029V45.961L68.9,45.806l.231-1.469Z" transform="translate(2.13 2.115)" fill="#1c9cc1"/>
      <path id="Caminho_21" data-name="Caminho 21" d="M81.622,38.88l-.156,1.468-4.714.309c0,1.624-.078,4.019-.078,7.266,0,3.4,0,5.72.156,7.111.077,1.005.463,1.469,1.237,1.469,1.623,0,2.627-1.778,3.014-3.4H81.7l.542,1.777c-.928,2.242-3.248,3.788-6.648,3.788a5.657,5.657,0,0,1-4.25-1.546,4.258,4.258,0,0,1-.773-2.783c0-3.17.155-10.281.155-13.681l-2.473-.232.155-1.468h2.319c.078-1.469.078-3.17.078-4.715A21.362,21.362,0,0,0,76.6,32l.464.078q-.2,3.436-.233,6.878h4.793v-.078Z" transform="translate(16.154 7.574)" fill="#1c9cc1"/>
      <path id="Caminho_22" data-name="Caminho 22" d="M117.485,6.183V70.491H6.183V6.183ZM123.669,0H0V76.675H123.669Z" fill="#1c9cc1"/>
    </g>
  </g>
</svg>
