<svg xmlns="http://www.w3.org/2000/svg" width="200" height="140" viewBox="0 0 200 140">
  <g id="passeio" transform="translate(-281 -613)">
    <rect id="Retângulo_22" data-name="Retângulo 22" width="200" height="140" transform="translate(281 613)" fill="none"/>
    <path id="passeio-2" data-name="passeio" d="M50.5,89.5h49m0,0L89.306,74M99.5,89.5c3.01-9.143,10.452-24.4,21.759-33.7,5.23-4.3,11.591-7.3,18.741-7.3M75.5,53,63,34M75.5,53C69,56,52,71,47,83.5M75.5,53l13.81,21M63,34H53m10,0H81m8.306,40C94.5,60.5,108.3,34,133.5,34H157M113,15h11l4.4,9M156,82.5,137.689,43m0,0H160l-6-19H128.4m9.289,19L128.4,24M78,89.5A34.5,34.5,0,1,1,43.5,55,34.5,34.5,0,0,1,78,89.5Zm-28,0A6.5,6.5,0,1,1,43.5,83,6.5,6.5,0,0,1,50,89.5Zm141,0A34.5,34.5,0,1,1,156.5,55,34.5,34.5,0,0,1,191,89.5Zm-28,0a6.5,6.5,0,1,1-6.5-6.5A6.5,6.5,0,0,1,163,89.5Z" transform="translate(280 611.5)" fill="none" stroke="#fff" stroke-linecap="round" stroke-linejoin="round" stroke-width="4"/>
  </g>
</svg>
